<svg width="87" height="55" viewBox="0 0 87 55" fill="none" xmlns="http://www.w3.org/2000/svg">
<path d="M5.08 32C4.49333 32 4 31.8 3.6 31.4C3.2 31 3 30.5067 3 29.92V2.84C3 2.22667 3.2 1.73333 3.6 1.36C4 0.959999 4.49333 0.759999 5.08 0.759999H12.28C14.28 0.759999 16.0533 1.18667 17.6 2.04C19.1467 2.86667 20.3467 4.01333 21.2 5.48C22.08 6.94666 22.52 8.65333 22.52 10.6C22.52 12.52 22.04 14.2133 21.08 15.68C20.12 17.12 18.8133 18.2133 17.16 18.96L23.28 28.8C23.76 29.5733 23.8267 30.3067 23.48 31C23.1333 31.6667 22.5333 32 21.68 32C20.9067 32 20.3067 31.6667 19.88 31L13 19.96C12.76 19.96 12.52 19.96 12.28 19.96H7.16V29.92C7.16 30.5067 6.96 31 6.56 31.4C6.18667 31.8 5.69333 32 5.08 32ZM7.16 16.12H12.28C14.0933 16.12 15.5867 15.6133 16.76 14.6C17.9333 13.56 18.52 12.2267 18.52 10.6C18.52 8.84 17.9333 7.4 16.76 6.28C15.5867 5.16 14.0933 4.6 12.28 4.6H7.16V16.12ZM32.3534 32C31.7668 32 31.2734 31.8 30.8734 31.4C30.4734 31 30.2734 30.5067 30.2734 29.92V2.84C30.2734 2.22667 30.4734 1.73333 30.8734 1.36C31.2734 0.959999 31.7668 0.759999 32.3534 0.759999H50.4334C51.0468 0.759999 51.5401 0.946666 51.9134 1.32C52.2868 1.66667 52.4734 2.13333 52.4734 2.72C52.4734 3.28 52.2868 3.73333 51.9134 4.08C51.5401 4.42666 51.0468 4.6 50.4334 4.6H34.4334V14.32H45.9134C46.5268 14.32 47.0201 14.5067 47.3934 14.88C47.7668 15.2267 47.9534 15.68 47.9534 16.24C47.9534 16.8 47.7668 17.2667 47.3934 17.64C47.0201 17.9867 46.5268 18.16 45.9134 18.16H34.4334V28.16H50.4334C51.0468 28.16 51.5401 28.3333 51.9134 28.68C52.2868 29.0267 52.4734 29.48 52.4734 30.04C52.4734 30.6267 52.2868 31.1067 51.9134 31.48C51.5401 31.8267 51.0468 32 50.4334 32H32.3534ZM73.3613 32.64C70.8013 32.64 68.5346 32.1733 66.5612 31.24C64.5879 30.28 63.0413 28.96 61.9213 27.28C60.8279 25.6 60.2813 23.68 60.2813 21.52V2.84C60.2813 2.22667 60.4813 1.73333 60.8813 1.36C61.2813 0.959999 61.7746 0.759999 62.3613 0.759999C62.9746 0.759999 63.4679 0.959999 63.8413 1.36C64.2413 1.73333 64.4413 2.22667 64.4413 2.84V21.52C64.4413 22.96 64.8146 24.24 65.5613 25.36C66.3346 26.4533 67.3879 27.32 68.7213 27.96C70.0813 28.5733 71.6279 28.88 73.3613 28.88C75.0413 28.88 76.5213 28.5733 77.8013 27.96C79.1079 27.32 80.1213 26.4533 80.8413 25.36C81.5879 24.24 81.9613 22.96 81.9613 21.52V2.84C81.9613 2.22667 82.1613 1.73333 82.5613 1.36C82.9613 0.959999 83.4546 0.759999 84.0413 0.759999C84.6546 0.759999 85.1479 0.959999 85.5213 1.36C85.8946 1.73333 86.0813 2.22667 86.0813 2.84V21.52C86.0813 23.68 85.5346 25.6 84.4413 27.28C83.3746 28.96 81.8813 30.28 79.9613 31.24C78.0413 32.1733 75.8413 32.64 73.3613 32.64Z" fill="#89BFFF"/>
<path d="M8.02 54.2C6.94 54.2 5.92667 53.9933 4.98 53.58C4.04667 53.1667 3.22 52.5933 2.5 51.86C1.79333 51.1133 1.24 50.26 0.84 49.3C0.44 48.3267 0.24 47.2867 0.24 46.18C0.24 45.0867 0.433333 44.06 0.82 43.1C1.22 42.1267 1.77333 41.2733 2.48 40.54C3.2 39.8067 4.02667 39.2333 4.96 38.82C5.90667 38.3933 6.92667 38.18 8.02 38.18C8.98 38.18 9.85333 38.32 10.64 38.6C11.4267 38.88 12.1867 39.3267 12.92 39.94C13.0933 40.0733 13.1667 40.2467 13.14 40.46C13.1133 40.66 13.0133 40.8 12.84 40.88C12.8 41.04 12.6733 41.14 12.46 41.18C12.26 41.22 12.06 41.16 11.86 41C11.34 40.5467 10.7733 40.2133 10.16 40C9.54667 39.7733 8.83333 39.66 8.02 39.66C7.15333 39.66 6.34 39.8333 5.58 40.18C4.83333 40.5267 4.17333 41 3.6 41.6C3.02667 42.2 2.57333 42.8933 2.24 43.68C1.92 44.4667 1.76 45.3 1.76 46.18C1.76 47.0867 1.92 47.9333 2.24 48.72C2.57333 49.5067 3.02667 50.2 3.6 50.8C4.17333 51.4 4.83333 51.8733 5.58 52.22C6.34 52.5533 7.15333 52.72 8.02 52.72C9.46 52.72 10.7733 52.2533 11.96 51.32C12.2 51.1333 12.4533 51.1067 12.72 51.24C13 51.3733 13.14 51.6 13.14 51.92C13.14 52.1333 13.0667 52.32 12.92 52.48C12.24 53.1067 11.48 53.5533 10.64 53.82C9.8 54.0733 8.92667 54.2 8.02 54.2ZM16.7697 54C16.463 54 16.243 53.8733 16.1097 53.62C15.9764 53.3667 15.963 53.12 16.0697 52.88L21.9497 38.92C22.0964 38.56 22.3497 38.38 22.7097 38.38C23.0564 38.38 23.303 38.56 23.4497 38.92L29.3497 52.9C29.4697 53.1533 29.4497 53.4 29.2897 53.64C29.143 53.88 28.9297 54 28.6497 54C28.2897 54 28.043 53.84 27.9097 53.52L26.5897 50.28H18.8297L17.4897 53.52C17.423 53.68 17.323 53.8 17.1897 53.88C17.0697 53.96 16.9297 54 16.7697 54ZM19.3897 48.94H26.0297L22.7097 40.92L19.3897 48.94ZM33.6722 54C33.4455 54 33.2589 53.9267 33.1122 53.78C32.9655 53.6333 32.8922 53.4467 32.8922 53.22V39.16C32.8922 38.9333 32.9655 38.7467 33.1122 38.6C33.2589 38.4533 33.4455 38.38 33.6722 38.38H37.4122C38.3855 38.38 39.2522 38.5867 40.0122 39C40.7722 39.4 41.3655 39.9667 41.7922 40.7C42.2322 41.42 42.4522 42.2533 42.4522 43.2C42.4522 44.24 42.1722 45.1467 41.6122 45.92C41.0522 46.68 40.3055 47.22 39.3722 47.54L42.6522 52.8C42.8522 53.12 42.8855 53.4 42.7522 53.64C42.6322 53.88 42.3922 54 42.0322 54C41.8589 54 41.7189 53.9667 41.6122 53.9C41.5189 53.8333 41.4322 53.7333 41.3522 53.6L37.7522 47.86C37.6455 47.8733 37.5322 47.88 37.4122 47.88H34.4522V53.22C34.4522 53.4467 34.3789 53.6333 34.2322 53.78C34.0855 53.9267 33.8989 54 33.6722 54ZM34.4522 46.38H37.4122C38.0922 46.38 38.6922 46.2467 39.2122 45.98C39.7455 45.7 40.1655 45.32 40.4722 44.84C40.7789 44.36 40.9322 43.8133 40.9322 43.2C40.9322 42.5467 40.7789 41.9733 40.4722 41.48C40.1655 40.9733 39.7455 40.58 39.2122 40.3C38.6922 40.02 38.0922 39.88 37.4122 39.88H34.4522V46.38ZM47.2355 54C47.0088 54 46.8221 53.9267 46.6755 53.78C46.5288 53.6333 46.4555 53.4467 46.4555 53.22V39.16C46.4555 38.9333 46.5288 38.7467 46.6755 38.6C46.8221 38.4533 47.0088 38.38 47.2355 38.38H56.6155C56.8288 38.38 57.0088 38.4533 57.1555 38.6C57.3155 38.7333 57.3955 38.9133 57.3955 39.14C57.3955 39.34 57.3155 39.5133 57.1555 39.66C57.0088 39.8067 56.8288 39.88 56.6155 39.88H48.0155V45.4H54.2755C54.5021 45.4 54.6888 45.4733 54.8355 45.62C54.9821 45.7667 55.0555 45.9467 55.0555 46.16C55.0555 46.3733 54.9821 46.5533 54.8355 46.7C54.6888 46.8467 54.5021 46.92 54.2755 46.92H48.0155V52.5H56.6155C56.8288 52.5 57.0088 52.5733 57.1555 52.72C57.3155 52.8667 57.3955 53.04 57.3955 53.24C57.3955 53.4667 57.3155 53.6533 57.1555 53.8C57.0088 53.9333 56.8288 54 56.6155 54H47.2355ZM62.2831 54C62.0565 54 61.8698 53.9267 61.7231 53.78C61.5765 53.6333 61.5031 53.4467 61.5031 53.22V39.16C61.5031 38.9333 61.5765 38.7467 61.7231 38.6C61.8698 38.4533 62.0565 38.38 62.2831 38.38H71.6631C71.8765 38.38 72.0565 38.4533 72.2031 38.6C72.3631 38.7333 72.4431 38.9133 72.4431 39.14C72.4431 39.34 72.3631 39.5133 72.2031 39.66C72.0565 39.8067 71.8765 39.88 71.6631 39.88H63.0631V45.4H69.3231C69.5498 45.4 69.7365 45.4733 69.8831 45.62C70.0298 45.7667 70.1031 45.9467 70.1031 46.16C70.1031 46.3733 70.0298 46.5533 69.8831 46.7C69.7365 46.8467 69.5498 46.92 69.3231 46.92H63.0631V52.5H71.6631C71.8765 52.5 72.0565 52.5733 72.2031 52.72C72.3631 52.8667 72.4431 53.04 72.4431 53.24C72.4431 53.4667 72.3631 53.6533 72.2031 53.8C72.0565 53.9333 71.8765 54 71.6631 54H62.2831ZM77.3308 54C77.1041 54 76.9174 53.9267 76.7708 53.78C76.6241 53.6333 76.5508 53.4467 76.5508 53.22V39.16C76.5508 38.9333 76.6241 38.7467 76.7708 38.6C76.9174 38.4533 77.1041 38.38 77.3308 38.38H81.0708C82.0441 38.38 82.9108 38.5867 83.6708 39C84.4308 39.4 85.0241 39.9667 85.4508 40.7C85.8908 41.42 86.1108 42.2533 86.1108 43.2C86.1108 44.24 85.8308 45.1467 85.2708 45.92C84.7108 46.68 83.9641 47.22 83.0308 47.54L86.3108 52.8C86.5108 53.12 86.5441 53.4 86.4108 53.64C86.2908 53.88 86.0508 54 85.6908 54C85.5174 54 85.3774 53.9667 85.2708 53.9C85.1774 53.8333 85.0908 53.7333 85.0108 53.6L81.4108 47.86C81.3041 47.8733 81.1908 47.88 81.0708 47.88H78.1108V53.22C78.1108 53.4467 78.0374 53.6333 77.8908 53.78C77.7441 53.9267 77.5574 54 77.3308 54ZM78.1108 46.38H81.0708C81.7508 46.38 82.3508 46.2467 82.8708 45.98C83.4041 45.7 83.8241 45.32 84.1308 44.84C84.4374 44.36 84.5908 43.8133 84.5908 43.2C84.5908 42.5467 84.4374 41.9733 84.1308 41.48C83.8241 40.9733 83.4041 40.58 82.8708 40.3C82.3508 40.02 81.7508 39.88 81.0708 39.88H78.1108V46.38Z" fill="#BDD390"/>
</svg>
