<svg width="53" height="34" viewBox="0 0 53 34" fill="none" xmlns="http://www.w3.org/2000/svg">
<path d="M3.648 19C3.296 19 3 18.88 2.76 18.64C2.52 18.4 2.4 18.104 2.4 17.752V1.504C2.4 1.136 2.52 0.839999 2.76 0.615999C3 0.375999 3.296 0.256 3.648 0.256H7.968C9.168 0.256 10.232 0.512 11.16 1.024C12.088 1.52 12.808 2.208 13.32 3.088C13.848 3.968 14.112 4.992 14.112 6.16C14.112 7.312 13.824 8.328 13.248 9.208C12.672 10.072 11.888 10.728 10.896 11.176L14.568 17.08C14.856 17.544 14.896 17.984 14.688 18.4C14.48 18.8 14.12 19 13.608 19C13.144 19 12.784 18.8 12.528 18.4L8.4 11.776C8.256 11.776 8.112 11.776 7.968 11.776H4.896V17.752C4.896 18.104 4.776 18.4 4.536 18.64C4.312 18.88 4.016 19 3.648 19ZM4.896 9.472H7.968C9.056 9.472 9.952 9.168 10.656 8.56C11.36 7.936 11.712 7.136 11.712 6.16C11.712 5.104 11.36 4.24 10.656 3.568C9.952 2.896 9.056 2.56 7.968 2.56H4.896V9.472ZM20.0121 19C19.6601 19 19.3641 18.88 19.1241 18.64C18.8841 18.4 18.7641 18.104 18.7641 17.752V1.504C18.7641 1.136 18.8841 0.839999 19.1241 0.615999C19.3641 0.375999 19.6601 0.256 20.0121 0.256H30.8601C31.2281 0.256 31.5241 0.368 31.7481 0.592C31.9721 0.8 32.0841 1.08 32.0841 1.432C32.0841 1.768 31.9721 2.04 31.7481 2.248C31.5241 2.456 31.2281 2.56 30.8601 2.56H21.2601V8.392H28.1481C28.5161 8.392 28.8121 8.504 29.0361 8.728C29.2601 8.936 29.3721 9.208 29.3721 9.544C29.3721 9.88 29.2601 10.16 29.0361 10.384C28.8121 10.592 28.5161 10.696 28.1481 10.696H21.2601V16.696H30.8601C31.2281 16.696 31.5241 16.8 31.7481 17.008C31.9721 17.216 32.0841 17.488 32.0841 17.824C32.0841 18.176 31.9721 18.464 31.7481 18.688C31.5241 18.896 31.2281 19 30.8601 19H20.0121ZM44.6168 19.384C43.0808 19.384 41.7208 19.104 40.5368 18.544C39.3528 17.968 38.4248 17.176 37.7528 16.168C37.0968 15.16 36.7688 14.008 36.7688 12.712V1.504C36.7688 1.136 36.8888 0.839999 37.1288 0.615999C37.3688 0.375999 37.6648 0.256 38.0168 0.256C38.3848 0.256 38.6808 0.375999 38.9048 0.615999C39.1448 0.839999 39.2648 1.136 39.2648 1.504V12.712C39.2648 13.576 39.4888 14.344 39.9368 15.016C40.4008 15.672 41.0328 16.192 41.8328 16.576C42.6488 16.944 43.5768 17.128 44.6168 17.128C45.6248 17.128 46.5128 16.944 47.2808 16.576C48.0648 16.192 48.6728 15.672 49.1048 15.016C49.5528 14.344 49.7768 13.576 49.7768 12.712V1.504C49.7768 1.136 49.8968 0.839999 50.1368 0.615999C50.3768 0.375999 50.6728 0.256 51.0248 0.256C51.3928 0.256 51.6888 0.375999 51.9128 0.615999C52.1368 0.839999 52.2488 1.136 52.2488 1.504V12.712C52.2488 14.008 51.9208 15.16 51.2648 16.168C50.6248 17.176 49.7288 17.968 48.5768 18.544C47.4248 19.104 46.1048 19.384 44.6168 19.384Z" fill="#89BFFF"/>
<path d="M5.863 33.13C5.161 33.13 4.50233 32.9957 3.887 32.727C3.28033 32.4583 2.743 32.0857 2.275 31.609C1.81567 31.1237 1.456 30.569 1.196 29.945C0.936 29.3123 0.806 28.6363 0.806 27.917C0.806 27.2063 0.931667 26.539 1.183 25.915C1.443 25.2823 1.80267 24.7277 2.262 24.251C2.73 23.7743 3.26733 23.4017 3.874 23.133C4.48933 22.8557 5.15233 22.717 5.863 22.717C6.487 22.717 7.05467 22.808 7.566 22.99C8.07733 23.172 8.57133 23.4623 9.048 23.861C9.16067 23.9477 9.20833 24.0603 9.191 24.199C9.17367 24.329 9.10867 24.42 8.996 24.472C8.97 24.576 8.88767 24.641 8.749 24.667C8.619 24.693 8.489 24.654 8.359 24.55C8.021 24.2553 7.65267 24.0387 7.254 23.9C6.85533 23.7527 6.39167 23.679 5.863 23.679C5.29967 23.679 4.771 23.7917 4.277 24.017C3.79167 24.2423 3.36267 24.55 2.99 24.94C2.61733 25.33 2.32267 25.7807 2.106 26.292C1.898 26.8033 1.794 27.345 1.794 27.917C1.794 28.5063 1.898 29.0567 2.106 29.568C2.32267 30.0793 2.61733 30.53 2.99 30.92C3.36267 31.31 3.79167 31.6177 4.277 31.843C4.771 32.0597 5.29967 32.168 5.863 32.168C6.799 32.168 7.65267 31.8647 8.424 31.258C8.58 31.1367 8.74467 31.1193 8.918 31.206C9.1 31.2927 9.191 31.44 9.191 31.648C9.191 31.7867 9.14333 31.908 9.048 32.012C8.606 32.4193 8.112 32.7097 7.566 32.883C7.02 33.0477 6.45233 33.13 5.863 33.13ZM10.7703 33C10.571 33 10.428 32.9177 10.3413 32.753C10.2546 32.5883 10.246 32.428 10.3153 32.272L14.1373 23.198C14.2326 22.964 14.3973 22.847 14.6313 22.847C14.8566 22.847 15.017 22.964 15.1123 23.198L18.9473 32.285C19.0253 32.4497 19.0123 32.61 18.9083 32.766C18.813 32.922 18.6743 33 18.4923 33C18.2583 33 18.098 32.896 18.0113 32.688L17.1533 30.582H12.1093L11.2383 32.688C11.195 32.792 11.13 32.87 11.0433 32.922C10.9653 32.974 10.8743 33 10.7703 33ZM12.4733 29.711H16.7893L14.6313 24.498L12.4733 29.711ZM20.9769 33C20.8296 33 20.7083 32.9523 20.6129 32.857C20.5176 32.7617 20.4699 32.6403 20.4699 32.493V23.354C20.4699 23.2067 20.5176 23.0853 20.6129 22.99C20.7083 22.8947 20.8296 22.847 20.9769 22.847H23.4079C24.0406 22.847 24.6039 22.9813 25.0979 23.25C25.5919 23.51 25.9776 23.8783 26.2549 24.355C26.5409 24.823 26.6839 25.3647 26.6839 25.98C26.6839 26.656 26.5019 27.2453 26.1379 27.748C25.7739 28.242 25.2886 28.593 24.6819 28.801L26.8139 32.22C26.9439 32.428 26.9656 32.61 26.8789 32.766C26.8009 32.922 26.6449 33 26.4109 33C26.2983 33 26.2073 32.9783 26.1379 32.935C26.0773 32.8917 26.0209 32.8267 25.9689 32.74L23.6289 29.009C23.5596 29.0177 23.4859 29.022 23.4079 29.022H21.4839V32.493C21.4839 32.6403 21.4363 32.7617 21.3409 32.857C21.2456 32.9523 21.1243 33 20.9769 33ZM21.4839 28.047H23.4079C23.8499 28.047 24.2399 27.9603 24.5779 27.787C24.9246 27.605 25.1976 27.358 25.3969 27.046C25.5963 26.734 25.6959 26.3787 25.6959 25.98C25.6959 25.5553 25.5963 25.1827 25.3969 24.862C25.1976 24.5327 24.9246 24.277 24.5779 24.095C24.2399 23.913 23.8499 23.822 23.4079 23.822H21.4839V28.047ZM29.0131 33C28.8657 33 28.7444 32.9523 28.6491 32.857C28.5537 32.7617 28.5061 32.6403 28.5061 32.493V23.354C28.5061 23.2067 28.5537 23.0853 28.6491 22.99C28.7444 22.8947 28.8657 22.847 29.0131 22.847H35.1101C35.2487 22.847 35.3657 22.8947 35.4611 22.99C35.5651 23.0767 35.6171 23.1937 35.6171 23.341C35.6171 23.471 35.5651 23.5837 35.4611 23.679C35.3657 23.7743 35.2487 23.822 35.1101 23.822H29.5201V27.41H33.5891C33.7364 27.41 33.8577 27.4577 33.9531 27.553C34.0484 27.6483 34.0961 27.7653 34.0961 27.904C34.0961 28.0427 34.0484 28.1597 33.9531 28.255C33.8577 28.3503 33.7364 28.398 33.5891 28.398H29.5201V32.025H35.1101C35.2487 32.025 35.3657 32.0727 35.4611 32.168C35.5651 32.2633 35.6171 32.376 35.6171 32.506C35.6171 32.6533 35.5651 32.7747 35.4611 32.87C35.3657 32.9567 35.2487 33 35.1101 33H29.0131ZM38.014 33C37.8667 33 37.7454 32.9523 37.65 32.857C37.5547 32.7617 37.507 32.6403 37.507 32.493V23.354C37.507 23.2067 37.5547 23.0853 37.65 22.99C37.7454 22.8947 37.8667 22.847 38.014 22.847H44.111C44.2497 22.847 44.3667 22.8947 44.462 22.99C44.566 23.0767 44.618 23.1937 44.618 23.341C44.618 23.471 44.566 23.5837 44.462 23.679C44.3667 23.7743 44.2497 23.822 44.111 23.822H38.521V27.41H42.59C42.7374 27.41 42.8587 27.4577 42.954 27.553C43.0494 27.6483 43.097 27.7653 43.097 27.904C43.097 28.0427 43.0494 28.1597 42.954 28.255C42.8587 28.3503 42.7374 28.398 42.59 28.398H38.521V32.025H44.111C44.2497 32.025 44.3667 32.0727 44.462 32.168C44.566 32.2633 44.618 32.376 44.618 32.506C44.618 32.6533 44.566 32.7747 44.462 32.87C44.3667 32.9567 44.2497 33 44.111 33H38.014ZM47.015 33C46.8677 33 46.7463 32.9523 46.651 32.857C46.5557 32.7617 46.508 32.6403 46.508 32.493V23.354C46.508 23.2067 46.5557 23.0853 46.651 22.99C46.7463 22.8947 46.8677 22.847 47.015 22.847H49.446C50.0787 22.847 50.642 22.9813 51.136 23.25C51.63 23.51 52.0157 23.8783 52.293 24.355C52.579 24.823 52.722 25.3647 52.722 25.98C52.722 26.656 52.54 27.2453 52.176 27.748C51.812 28.242 51.3267 28.593 50.72 28.801L52.852 32.22C52.982 32.428 53.0037 32.61 52.917 32.766C52.839 32.922 52.683 33 52.449 33C52.3363 33 52.2453 32.9783 52.176 32.935C52.1153 32.8917 52.059 32.8267 52.007 32.74L49.667 29.009C49.5977 29.0177 49.524 29.022 49.446 29.022H47.522V32.493C47.522 32.6403 47.4743 32.7617 47.379 32.857C47.2837 32.9523 47.1623 33 47.015 33ZM47.522 28.047H49.446C49.888 28.047 50.278 27.9603 50.616 27.787C50.9627 27.605 51.2357 27.358 51.435 27.046C51.6343 26.734 51.734 26.3787 51.734 25.98C51.734 25.5553 51.6343 25.1827 51.435 24.862C51.2357 24.5327 50.9627 24.277 50.616 24.095C50.278 23.913 49.888 23.822 49.446 23.822H47.522V28.047Z" fill="#BDD390"/>
</svg>
