<svg width="28" height="28" viewBox="0 0 28 28" fill="none" xmlns="http://www.w3.org/2000/svg">
<rect width="28" height="28" rx="6" fill="#1275B1"/>
<path d="M10.6186 7.69215C10.6186 8.6267 9.80852 9.3843 8.80928 9.3843C7.81004 9.3843 7 8.6267 7 7.69215C7 6.7576 7.81004 6 8.80928 6C9.80852 6 10.6186 6.7576 10.6186 7.69215Z" fill="white"/>
<path d="M7.24742 10.6281H10.3402V20H7.24742V10.6281Z" fill="white"/>
<path d="M15.3196 10.6281H12.2268V20H15.3196C15.3196 20 15.3196 17.0496 15.3196 15.2049C15.3196 14.0976 15.6977 12.9855 17.2062 12.9855C18.911 12.9855 18.9008 14.4345 18.8928 15.5571C18.8824 17.0244 18.9072 18.5219 18.9072 20H22V15.0537C21.9738 11.8954 21.1508 10.4401 18.4433 10.4401C16.8354 10.4401 15.8387 11.1701 15.3196 11.8305V10.6281Z" fill="white"/>
</svg>
