<svg width="48" height="34" viewBox="0 0 48 34" fill="none" xmlns="http://www.w3.org/2000/svg">
<path d="M8.00391 11.4258H4.69922V18H1.73438V0.9375H7.73438C9.70312 0.9375 11.2227 1.37891 12.293 2.26172C13.3633 3.14453 13.8984 4.42188 13.8984 6.09375C13.8984 7.23438 13.6211 8.19141 13.0664 8.96484C12.5195 9.73047 11.7539 10.3203 10.7695 10.7344L14.6016 17.8477V18H11.4258L8.00391 11.4258ZM4.69922 9.04688H7.74609C8.74609 9.04688 9.52734 8.79688 10.0898 8.29688C10.6523 7.78906 10.9336 7.09766 10.9336 6.22266C10.9336 5.30859 10.6719 4.60156 10.1484 4.10156C9.63281 3.60156 8.85938 3.34375 7.82812 3.32812H4.69922V9.04688ZM28.8436 10.3828H21.8358V15.6328H30.0272V18H18.8709V0.9375H29.9452V3.32812H21.8358V8.03906H28.8436V10.3828ZM47.0817 0.9375V12.3398C47.0817 14.1523 46.4997 15.5898 45.3356 16.6523C44.1794 17.707 42.6364 18.2344 40.7067 18.2344C38.7536 18.2344 37.2028 17.7148 36.0544 16.6758C34.9059 15.6289 34.3317 14.1797 34.3317 12.3281V0.9375H37.2848V12.3516C37.2848 13.4922 37.5739 14.3633 38.152 14.9648C38.7302 15.5664 39.5817 15.8672 40.7067 15.8672C42.988 15.8672 44.1286 14.6641 44.1286 12.2578V0.9375H47.0817Z" fill="#89BFFF"/>
<path d="M7.87109 30.0674C7.75684 31.0449 7.39502 31.8003 6.78564 32.3335C6.1805 32.8625 5.37435 33.127 4.36719 33.127C3.27539 33.127 2.39941 32.7355 1.73926 31.9526C1.08333 31.1698 0.755371 30.1224 0.755371 28.8105V27.9219C0.755371 27.0628 0.907715 26.3075 1.2124 25.6558C1.52132 25.0041 1.95719 24.5047 2.52002 24.1577C3.08285 23.8065 3.73454 23.6309 4.4751 23.6309C5.45687 23.6309 6.24398 23.9059 6.83643 24.4561C7.42887 25.002 7.77376 25.7594 7.87109 26.7285H6.646C6.5402 25.9922 6.30957 25.459 5.9541 25.1289C5.60286 24.7988 5.10986 24.6338 4.4751 24.6338C3.69645 24.6338 3.08496 24.9215 2.64062 25.4971C2.20052 26.0726 1.98047 26.8914 1.98047 27.9536V28.8486C1.98047 29.8516 2.18994 30.6493 2.60889 31.2417C3.02783 31.8341 3.61393 32.1304 4.36719 32.1304C5.04427 32.1304 5.56266 31.978 5.92236 31.6733C6.2863 31.3644 6.52751 30.8291 6.646 30.0674H7.87109ZM14.644 30.5879H10.772L9.90234 33H8.64551L12.1748 23.7578H13.2412L16.7769 33H15.5264L14.644 30.5879ZM11.1401 29.585H14.2822L12.708 25.2622L11.1401 29.585ZM21.4106 29.2612H19.2397V33H18.0146V23.7578H21.0742C22.1152 23.7578 22.915 23.9948 23.4736 24.4688C24.0365 24.9427 24.3179 25.6325 24.3179 26.5381C24.3179 27.1136 24.1613 27.6151 23.8481 28.0425C23.5392 28.4699 23.1076 28.7894 22.5532 29.001L24.7241 32.9238V33H23.4165L21.4106 29.2612ZM19.2397 28.2646H21.1123C21.7174 28.2646 22.1978 28.1081 22.5532 27.7949C22.9129 27.4818 23.0928 27.0628 23.0928 26.5381C23.0928 25.9668 22.9214 25.5288 22.5786 25.2241C22.2401 24.9194 21.7492 24.765 21.106 24.7607H19.2397V28.2646ZM31.2559 28.728H27.2505V32.0034H31.9033V33H26.0317V23.7578H31.8398V24.7607H27.2505V27.7314H31.2559V28.728ZM38.6445 28.728H34.6392V32.0034H39.292V33H33.4204V23.7578H39.2285V24.7607H34.6392V27.7314H38.6445V28.728ZM44.1987 29.2612H42.0278V33H40.8027V23.7578H43.8623C44.9033 23.7578 45.7031 23.9948 46.2617 24.4688C46.8245 24.9427 47.106 25.6325 47.106 26.5381C47.106 27.1136 46.9494 27.6151 46.6362 28.0425C46.3273 28.4699 45.8957 28.7894 45.3413 29.001L47.5122 32.9238V33H46.2046L44.1987 29.2612ZM42.0278 28.2646H43.9004C44.5055 28.2646 44.9858 28.1081 45.3413 27.7949C45.701 27.4818 45.8809 27.0628 45.8809 26.5381C45.8809 25.9668 45.7095 25.5288 45.3667 25.2241C45.0282 24.9194 44.5373 24.765 43.894 24.7607H42.0278V28.2646Z" fill="#ACD5B3"/>
</svg>
