<svg width="18" height="21" viewBox="0 0 18 21" fill="none" xmlns="http://www.w3.org/2000/svg">
<mask id="mask0" style="mask-type:alpha" maskUnits="userSpaceOnUse" x="0" y="0" width="18" height="17">
<path fill-rule="evenodd" clip-rule="evenodd" d="M0.866699 0.633331H17.8437V16.5558H0.866699V0.633331Z" fill="white"/>
</mask>
<g mask="url(#mask0)">
<path fill-rule="evenodd" clip-rule="evenodd" d="M9.35389 2.01009C6.14608 2.01009 3.91025 4.5231 3.91025 6.77821C3.91025 8.68638 3.38066 9.56841 2.91257 10.3467C2.53717 10.9718 2.24072 11.4656 2.24072 12.5385C2.39399 14.2695 3.53669 15.1791 9.35389 15.1791C15.139 15.1791 16.3175 14.2291 16.4698 12.4788C16.4671 11.4656 16.1706 10.9718 15.7952 10.3467C15.3271 9.56841 14.7975 8.68638 14.7975 6.77821C14.7975 4.5231 12.5617 2.01009 9.35389 2.01009ZM9.35388 16.5558C5.06211 16.5558 1.18336 16.2529 0.866711 12.5972C0.863958 11.0847 1.32563 10.3155 1.73314 9.63815C2.14525 8.95162 2.53349 8.30455 2.53349 6.7782C2.53349 3.81086 5.27413 0.633331 9.35388 0.633331C13.4336 0.633331 16.1743 3.81086 16.1743 6.7782C16.1743 8.30455 16.5625 8.95162 16.9746 9.63815C17.3821 10.3155 17.8438 11.0847 17.8438 12.5385C17.5235 16.2529 13.6456 16.5558 9.35388 16.5558Z" fill="#B6C77F"/>
</g>
<path fill-rule="evenodd" clip-rule="evenodd" d="M9.3091 20.3667H9.30727C8.27838 20.3657 7.30457 19.9123 6.56571 19.089C6.31147 18.8073 6.33442 18.3713 6.61711 18.118C6.8998 17.8628 7.33485 17.8858 7.58909 18.1694C8.06453 18.699 8.67488 18.9899 9.30819 18.9899H9.3091C9.94516 18.9899 10.5583 18.699 11.0346 18.1685C11.2898 17.8867 11.7248 17.8637 12.0066 18.118C12.2893 18.3722 12.3122 18.8082 12.058 19.09C11.3164 19.9132 10.3407 20.3667 9.3091 20.3667Z" fill="#B6C77F"/>
</svg>
